<?xml version="1.0" standalone="no"?>
<!DOCTYPE svg PUBLIC "-//W3C//DTD SVG 20010904//EN"
 "http://www.w3.org/TR/2001/REC-SVG-20010904/DTD/svg10.dtd">
<svg version="1.0" xmlns="http://www.w3.org/2000/svg"
 width="700.000000pt" height="700.000000pt" viewBox="0 0 700.000000 700.000000"
 preserveAspectRatio="xMidYMid meet">

<g transform="translate(0.000000,700.000000) scale(0.100000,-0.100000)"
fill="#000000" stroke="none">
<path d="M1483 6565 c-346 -63 -608 -309 -696 -653 l-22 -87 0 -1890 0 -1890
23 -90 c88 -346 377 -607 725 -654 109 -15 3675 -15 3784 0 348 47 626 291
725 634 l23 80 0 1920 0 1920 -23 78 c-90 313 -306 528 -622 620 l-75 22
-1885 2 c-1516 1 -1899 -1 -1957 -12z m3789 -416 c119 -25 238 -112 301 -219
51 -87 57 -138 57 -457 l0 -293 -619 0 -620 0 -98 67 c-409 278 -929 348
-1401 187 -109 -37 -276 -122 -380 -193 l-89 -61 -623 0 -622 0 4 308 c5 277
7 313 26 363 54 149 165 252 312 291 60 16 206 17 1882 17 1295 1 1832 -2
1870 -10z m-1689 -1064 c564 -85 987 -578 987 -1150 0 -462 -281 -887 -707
-1070 -623 -268 -1351 65 -1562 714 -40 122 -55 218 -55 356 0 139 15 234 55
358 106 327 354 593 670 720 79 32 227 71 304 80 75 9 218 6 308 -8z m-1541
-330 c2 -3 -21 -56 -52 -118 -257 -514 -216 -1106 111 -1597 90 -135 282 -325
422 -418 609 -404 1389 -352 1937 130 249 219 427 528 502 872 19 86 22 132
22 311 0 179 -3 225 -22 311 -29 136 -83 288 -143 405 -27 52 -49 98 -49 102
0 4 194 7 430 7 l430 0 0 -1328 c0 -1451 2 -1390 -57 -1492 -65 -111 -187
-197 -312 -220 -34 -6 -697 -10 -1855 -10 -1960 0 -1880 -2 -1986 56 -95 52
-171 141 -213 253 l-22 56 -3 1329 c-1 732 0 1336 2 1343 4 10 90 13 429 13
233 0 426 -2 429 -5z"/>
<path d="M4880 5791 c-15 -29 -13 -334 2 -349 8 -8 64 -12 185 -12 160 0 173
1 183 19 6 11 10 87 10 175 0 127 -3 157 -16 170 -13 13 -44 16 -184 16 -157
0 -170 -1 -180 -19z"/>
<path d="M3310 4818 c-67 -36 -103 -94 -108 -172 -3 -49 0 -71 16 -103 41 -80
114 -123 212 -123 140 -1 305 -98 389 -229 39 -61 71 -159 71 -219 0 -79 25
-145 71 -186 50 -46 76 -56 145 -56 85 0 149 40 188 117 21 42 21 169 0 271
-83 403 -426 699 -834 719 -97 5 -108 3 -150 -19z"/>
</g>
</svg>
