<?xml version="1.0" standalone="no"?>
<!DOCTYPE svg PUBLIC "-//W3C//DTD SVG 20010904//EN"
 "http://www.w3.org/TR/2001/REC-SVG-20010904/DTD/svg10.dtd">
<svg version="1.0" xmlns="http://www.w3.org/2000/svg"
 width="700.000000pt" height="700.000000pt" viewBox="0 0 700.000000 700.000000"
 preserveAspectRatio="xMidYMid meet">

<g transform="translate(0.000000,700.000000) scale(0.100000,-0.100000)"
fill="#000000" stroke="none">
<path d="M1426 6949 c-149 -22 -328 -92 -456 -179 -82 -56 -198 -167 -261
-249 -69 -91 -153 -266 -186 -386 l-28 -100 -3 -2025 c-2 -1786 -1 -2037 13
-2124 73 -467 439 -835 906 -911 139 -22 4016 -23 4154 0 470 76 834 440 910
910 23 138 22 4015 0 4154 -65 401 -350 735 -738 866 -171 57 -85 55 -2257 54
-1097 -1 -2022 -5 -2054 -10z m4096 -504 c99 -21 218 -86 294 -162 78 -78 146
-207 163 -309 9 -51 11 -601 9 -2054 -3 -1836 -5 -1989 -20 -2033 -70 -198
-207 -335 -405 -405 -44 -15 -197 -17 -2033 -20 -1453 -2 -2003 0 -2054 9
-103 17 -231 85 -310 165 -80 79 -148 207 -165 310 -9 51 -11 602 -9 2054 l3
1985 22 58 c40 103 85 176 150 241 82 82 213 151 323 169 14 2 912 5 1995 5
1673 1 1980 -1 2037 -13z"/>
<path d="M1722 4068 l3 -1483 150 0 150 0 3 487 2 487 458 3 c438 4 460 5 530
26 131 40 266 121 337 204 74 87 147 273 180 463 21 123 29 363 16 492 -45
437 -240 696 -590 780 -55 13 -163 16 -654 20 l-587 5 2 -1484z m1139 1168
c145 -31 252 -113 314 -239 63 -130 70 -173 69 -442 0 -228 -1 -245 -27 -339
-32 -117 -58 -166 -126 -229 -72 -67 -175 -114 -281 -127 -46 -5 -241 -10
-432 -10 l-348 0 0 700 0 700 383 0 c289 0 398 -4 448 -14z"/>
<path d="M4509 4750 c-169 -16 -313 -70 -405 -153 -71 -64 -139 -168 -170
-257 -46 -132 -33 -295 34 -410 57 -100 208 -229 328 -280 27 -12 147 -55 267
-96 262 -88 341 -128 424 -209 48 -48 65 -73 77 -115 58 -196 -42 -346 -269
-405 -76 -19 -252 -20 -325 0 -69 18 -165 65 -212 105 -40 33 -98 138 -98 178
l0 25 -145 -5 c-79 -2 -148 -7 -152 -11 -4 -4 -1 -40 5 -79 38 -220 224 -408
472 -478 121 -33 288 -46 422 -32 222 24 338 72 458 191 122 120 170 234 170
401 0 207 -69 357 -218 476 -94 75 -186 116 -501 225 -152 53 -288 117 -357
167 -78 57 -113 170 -84 273 15 55 85 127 153 160 160 75 430 63 584 -27 32
-18 44 -22 48 -12 2 7 23 63 45 123 22 61 40 116 40 122 0 18 -86 59 -184 87
-75 22 -258 49 -305 45 -9 -1 -55 -5 -102 -9z"/>
</g>
</svg>
