<?xml version="1.0" standalone="no"?>
<!DOCTYPE svg PUBLIC "-//W3C//DTD SVG 20010904//EN"
 "http://www.w3.org/TR/2001/REC-SVG-20010904/DTD/svg10.dtd">
<svg version="1.0" xmlns="http://www.w3.org/2000/svg"
 width="700.000000pt" height="700.000000pt" viewBox="0 0 700.000000 700.000000"
 preserveAspectRatio="xMidYMid meet">

<g transform="translate(0.000000,700.000000) scale(0.100000,-0.100000)"
fill="#000000" stroke="none">
<path d="M1386 6959 c-149 -22 -328 -92 -456 -179 -82 -56 -198 -167 -261
-249 -69 -91 -153 -266 -186 -386 l-28 -100 -3 -2025 c-2 -1786 -1 -2037 13
-2124 73 -467 439 -835 906 -911 139 -22 4016 -23 4154 0 470 76 834 440 910
910 23 138 22 4015 0 4154 -65 401 -350 735 -738 866 -171 57 -85 55 -2257 54
-1097 -1 -2022 -5 -2054 -10z m4096 -504 c99 -21 218 -86 294 -162 78 -78 146
-207 163 -309 9 -51 11 -601 9 -2054 -3 -1836 -5 -1989 -20 -2033 -70 -198
-207 -335 -405 -405 -44 -15 -197 -17 -2033 -20 -1453 -2 -2003 0 -2054 9
-103 17 -231 85 -310 165 -80 79 -148 207 -165 310 -9 51 -11 602 -9 2054 l3
1985 22 58 c40 103 85 176 150 241 82 82 213 151 323 169 14 2 912 5 1995 5
1673 1 1980 -1 2037 -13z"/>
<path d="M2020 4075 l0 -1485 150 0 150 0 0 489 0 490 458 3 c516 4 505 3 672
85 185 90 285 227 349 473 39 152 51 262 51 455 0 355 -77 591 -250 765 -115
117 -253 178 -445 200 -49 5 -325 10 -612 10 l-523 0 0 -1485z m1153 1166
c101 -26 150 -53 213 -115 64 -65 108 -149 136 -264 19 -74 22 -116 22 -287 0
-168 -3 -215 -21 -295 -42 -188 -81 -254 -196 -330 -124 -81 -138 -83 -599
-88 l-408 -4 0 701 0 701 388 0 c352 0 396 -2 465 -19z"/>
<path d="M4826 4723 c-78 -16 -169 -52 -227 -89 -21 -13 -41 -24 -44 -24 -3 0
-5 23 -5 50 l0 50 -145 0 -145 0 0 -1060 0 -1060 150 0 149 0 3 823 c3 821 3
822 25 862 63 117 222 195 397 195 65 0 228 -24 269 -39 24 -10 25 -9 61 131
21 77 35 143 32 146 -31 30 -401 41 -520 15z"/>
</g>
</svg>
