<?xml version="1.0" standalone="no"?>
<!DOCTYPE svg PUBLIC "-//W3C//DTD SVG 20010904//EN"
 "http://www.w3.org/TR/2001/REC-SVG-20010904/DTD/svg10.dtd">
<svg version="1.0" xmlns="http://www.w3.org/2000/svg"
 width="700.000000pt" height="700.000000pt" viewBox="0 0 700.000000 700.000000"
 preserveAspectRatio="xMidYMid meet">

<g transform="translate(0.000000,700.000000) scale(0.100000,-0.100000)"
fill="#000000" stroke="none">
<path d="M3000 6240 c-536 -56 -1004 -268 -1380 -627 -385 -366 -632 -863
-701 -1408 -20 -157 -15 -444 10 -610 47 -311 147 -603 295 -857 31 -54 56
-102 56 -107 0 -6 -88 -248 -196 -538 -213 -576 -211 -570 -156 -625 57 -58
48 -61 614 179 l516 220 103 -59 c679 -381 1513 -406 2208 -65 230 112 442
268 626 458 199 206 332 400 447 654 332 734 256 1613 -197 2295 -387 583
-998 972 -1685 1075 -127 19 -442 27 -560 15z m502 -245 c982 -129 1764 -916
1894 -1905 22 -171 15 -488 -15 -645 -83 -439 -269 -795 -575 -1101 -273 -272
-576 -446 -940 -539 -203 -52 -364 -69 -596 -62 -396 11 -737 112 -1079 320
-62 38 -94 51 -120 51 -23 -1 -180 -62 -440 -173 -222 -95 -405 -170 -408
-167 -2 2 66 194 151 426 86 232 156 436 156 454 0 21 -17 58 -51 111 -76 120
-183 345 -228 482 -169 508 -143 1069 71 1547 289 646 901 1105 1602 1200 139
19 438 20 578 1z"/>
<path d="M2420 5277 c-166 -68 -349 -246 -439 -424 -50 -101 -64 -179 -57
-318 10 -209 65 -402 181 -640 247 -507 694 -956 1200 -1205 252 -125 468
-182 690 -183 122 -1 135 1 210 29 45 17 101 44 125 59 194 121 371 349 387
497 14 134 -36 212 -191 300 -50 28 -145 86 -211 129 -174 111 -258 151 -330
157 -104 8 -167 -32 -294 -188 -120 -146 -102 -138 -207 -86 -223 112 -555
446 -670 673 -19 38 -34 74 -34 80 0 7 35 41 77 75 199 161 250 233 240 334
-7 69 -53 167 -139 301 -36 55 -97 154 -136 220 -77 129 -129 186 -189 202
-64 18 -152 13 -213 -12z m205 -317 c34 -58 99 -163 144 -234 45 -71 84 -140
87 -153 8 -30 -1 -40 -117 -134 -177 -143 -211 -200 -189 -313 28 -146 160
-351 360 -559 274 -284 531 -446 695 -435 81 5 121 34 242 180 52 62 101 118
110 125 20 15 69 -9 237 -116 66 -43 159 -100 204 -126 46 -26 86 -54 89 -61
22 -57 -187 -294 -312 -355 -61 -30 -80 -34 -165 -37 -218 -8 -509 90 -793
266 -591 365 -1052 1047 -1060 1568 -2 97 -1 102 35 175 44 88 133 190 223
254 125 89 132 88 210 -45z"/>
</g>
</svg>
